<?xml version="1.0" encoding="UTF-8"?>
<svg id="Layer_1" xmlns="http://www.w3.org/2000/svg" width="493.99" height="167.3" viewBox="0 0 493.99 167.3">
  <g id="Layer_1-2" data-name="Layer_1">
    <path d="M0,111.21v26.54c0,14.66,38.79,26.54,86.64,26.54v-26.54C38.79,137.75,0,125.87,0,111.21Z" fill="#f6c75e"/>
    <path d="M0,74.19v26.54c0,14.66,38.79,26.54,86.64,26.54v-26.54C38.79,100.73,0,88.85,0,74.19Z" fill="#eb9661"/>
    <path d="M0,37.16v26.54c0,14.66,38.79,26.54,86.64,26.54v-26.54C38.79,63.7,0,51.82,0,37.16Z" fill="#5e9cc3"/>
    <path d="M0,26.54c0,14.66,38.79,26.54,86.64,26.54V0C38.79,0,0,11.88,0,26.54Z" fill="#155177"/>
    <path d="M116.1,27.16c3.54.03,6.94-1.41,9.38-3.98,2.56-2.47,3.99-5.89,3.95-9.44.06-3.61-1.37-7.09-3.95-9.61-2.44-2.57-5.84-4.01-9.38-3.98-3.6-.06-7.05,1.38-9.55,3.98-2.58,2.52-4.01,6-3.95,9.61.06,7.42,6.08,13.4,13.5,13.42Z" fill="#155177"/>
    <path d="M118.07,166.01c.13.25.33.45.58.58.22.15.48.24.74.25l7.41-1.33c.31,0,.59-.15.74-.41.15-.22.23-.48.25-.75l-3.09-25.58h-14.31l7.68,27.23h0Z" fill="#f6c75e"/>
    <path d="M105.07,121.77c.23.25.43.53.57.83.16.33.3.61.41.83l1.38,4.91h15.99l-1.74-14.35c-.03-.34-.11-.68-.25-1-.16-.44-.3-.77-.41-.99l-5.67-10.84h-21v8.41l10.71,12.2h.01Z" fill="#eb9661"/>
    <path d="M154.21,78.11c-.06-.28-.2-.54-.41-.75l-18.37-13.84h-41.06v27.18h15.54l-3.68-7.05c-.22-.59-.22-1.24,0-1.82l7.74-17.56c.09-.21.27-.36.49-.42.25-.04.5.05.66.25l7.74,6.79c.25.25.53.47.82.66.3.21.64.38.99.5l24.69,12.43c.55.18,1.15-.02,1.48-.5l3.29-5.14c.11-.23.14-.49.08-.74h0Z" fill="#5e9cc3"/>
    <path d="M127.29,53.08l-6.91-18.63c-.15-.28-.35-.53-.58-.74-.28-.27-.52-.52-.74-.74l-15.47-8.45c-.32-.11-.65-.19-.99-.25-.33-.05-.67-.03-.99.08l-7.25,3.15v25.59h32.93,0Z" fill="#155177"/>
    <path d="M196.98,0v5.02h-13.11v6.27h11.36v4.64h-11.36v11.21h-5.97V0h19.08Z" fill="#155177"/>
    <path d="M214.15,25.89c-1.61,1.16-3.56,1.75-5.55,1.67-1.4.03-2.79-.23-4.09-.76-1.12-.48-2.11-1.21-2.91-2.13-.81-.95-1.41-2.07-1.77-3.27-.41-1.34-.63-2.74-.66-4.14-.02-1.4.22-2.79.68-4.1.43-1.19,1.08-2.29,1.92-3.23.82-.91,1.81-1.63,2.93-2.13,1.17-.52,2.43-.77,3.71-.76,1.52-.06,3.03.32,4.35,1.08,1.12.69,2.07,1.64,2.77,2.76s1.19,2.35,1.44,3.65c.26,1.24.37,2.5.32,3.76h-14.71c-.03.83.07,1.66.3,2.45.22.75.59,1.45,1.1,2.05.53.61,1.19,1.1,1.94,1.43.88.37,1.82.55,2.77.53,1.19.05,2.37-.28,3.36-.95.92-.71,1.54-1.74,1.73-2.89h3.19c-.29,1.96-1.31,3.74-2.85,4.98h.03ZM213.37,13.28c-.28-.66-.68-1.26-1.18-1.77-.5-.5-1.1-.9-1.75-1.18-.7-.3-1.46-.45-2.22-.44-.78-.01-1.55.14-2.26.44-.65.28-1.24.69-1.73,1.2-.49.51-.87,1.11-1.14,1.77-.28.68-.45,1.41-.49,2.15h11.29c-.05-.75-.22-1.48-.51-2.17h-.01Z" fill="#155177"/>
    <path d="M234.98,27.15v-2.66h-.08c-.51,1.07-1.41,1.91-2.51,2.36-1.19.49-2.47.74-3.76.72-1.37.03-2.73-.25-3.97-.84-1.09-.53-2.05-1.29-2.81-2.24-.77-.97-1.34-2.08-1.69-3.27-.39-1.28-.58-2.61-.57-3.95,0-1.34.18-2.67.55-3.95.34-1.18.91-2.29,1.67-3.25.76-.94,1.72-1.69,2.81-2.2,1.23-.57,2.58-.85,3.93-.82.55,0,1.09.06,1.63.15.6.11,1.19.28,1.75.51.59.24,1.14.56,1.65.95.53.4.97.9,1.31,1.46h.08V0h3.23v27.13h-3.23.01ZM223.37,20.17c.22.84.6,1.63,1.1,2.34.5.69,1.15,1.25,1.9,1.63.84.42,1.78.63,2.72.61,1.85.08,3.6-.81,4.64-2.34.49-.72.85-1.53,1.05-2.38.44-1.81.43-3.69-.02-5.49-.21-.85-.57-1.66-1.08-2.38-.5-.69-1.16-1.26-1.92-1.65-.88-.44-1.86-.66-2.85-.63-.97-.03-1.92.19-2.77.65-.74.41-1.37,1-1.82,1.71-.47.75-.81,1.57-.99,2.43-.2.92-.31,1.87-.3,2.81,0,.91.12,1.81.36,2.68h-.02Z" fill="#155177"/>
    <path d="M257.09,25.89c-1.61,1.16-3.56,1.75-5.55,1.67-1.4.03-2.79-.23-4.08-.76-1.12-.48-2.11-1.21-2.91-2.13-.81-.95-1.41-2.07-1.77-3.27-.41-1.34-.63-2.74-.67-4.14-.02-1.4.22-2.79.68-4.1.43-1.19,1.08-2.29,1.92-3.23.82-.91,1.81-1.63,2.93-2.13,1.17-.52,2.43-.77,3.71-.76,1.52-.06,3.03.32,4.35,1.08,1.12.69,2.07,1.64,2.77,2.76.7,1.12,1.19,2.35,1.44,3.65.26,1.24.37,2.5.32,3.76h-14.71c-.03.83.07,1.66.3,2.45.22.75.59,1.45,1.1,2.05.53.61,1.19,1.1,1.94,1.43.88.37,1.82.55,2.77.53,1.19.05,2.37-.28,3.36-.95.92-.71,1.54-1.74,1.73-2.89h3.19c-.29,1.96-1.31,3.74-2.85,4.98h.03ZM256.31,13.28c-.27-.66-.67-1.26-1.18-1.77-.5-.5-1.1-.9-1.75-1.18-.7-.3-1.46-.45-2.22-.44-.78-.01-1.55.14-2.26.44-.65.28-1.24.69-1.73,1.2-.49.51-.87,1.11-1.14,1.77-.28.68-.45,1.41-.49,2.15h11.29c-.05-.75-.22-1.48-.51-2.17h-.01Z" fill="#155177"/>
    <path d="M266.51,7.5v4.14h.08c.63-1.41,1.63-2.63,2.89-3.53,1.3-.8,2.81-1.17,4.33-1.06v3.42c-1.13-.03-2.25.15-3.31.53-.86.32-1.62.85-2.2,1.56-.58.73-1,1.58-1.22,2.49-.27,1.1-.4,2.23-.38,3.36v8.74h-3.23V7.5h3.04Z" fill="#155177"/>
    <path d="M293.65,27.06c-.71.37-1.51.54-2.32.5-.73.04-1.45-.21-2-.7-.55-.63-.82-1.46-.74-2.3-.82,1.02-1.89,1.81-3.1,2.3-2.03.77-4.24.91-6.35.4-.75-.18-1.45-.5-2.07-.95-.59-.44-1.07-1.02-1.39-1.69-.36-.79-.54-1.66-.51-2.53-.04-.94.16-1.88.57-2.74.36-.69.87-1.28,1.5-1.73.65-.46,1.37-.8,2.13-1.01.8-.23,1.62-.42,2.45-.57.89-.18,1.73-.31,2.53-.4.71-.07,1.42-.2,2.11-.38.53-.13,1.03-.37,1.44-.72.37-.36.57-.87.53-1.39.03-.6-.11-1.19-.4-1.71-.25-.41-.6-.75-1.03-.99-.44-.23-.91-.39-1.41-.46-.51-.08-1.02-.11-1.54-.11-1.19-.04-2.37.23-3.42.78-.98.65-1.55,1.77-1.48,2.94h-3.23c.01-1.07.27-2.12.76-3.08.44-.81,1.06-1.51,1.82-2.03.79-.53,1.67-.91,2.6-1.12,1.03-.23,2.08-.35,3.13-.34.88,0,1.77.06,2.64.19.83.11,1.64.38,2.38.78.71.39,1.3.96,1.71,1.65.46.85.69,1.8.65,2.77v10.09c-.02.56.03,1.12.13,1.67.09.35.39.53.89.53.34-.01.67-.07.99-.19v2.54h.03ZM288.4,16.96c-.48.34-1.02.56-1.6.67-.66.14-1.35.25-2.07.34s-1.45.19-2.19.3c-.68.1-1.34.28-1.98.55-.56.24-1.05.61-1.42,1.08-.4.56-.59,1.24-.55,1.92-.02.47.1.94.32,1.35.21.36.49.66.84.89.37.24.77.4,1.2.49.47.1.96.15,1.44.15.93.02,1.86-.13,2.74-.44.68-.25,1.32-.62,1.86-1.1.45-.4.81-.89,1.06-1.44.21-.46.33-.96.34-1.46v-3.31h.01Z" fill="#155177"/>
    <path d="M305.05,7.5v2.85h-3.91v12.2c0,.31.02.61.09.91.05.21.18.4.36.53.22.14.48.23.74.25.41.04.82.06,1.23.06h1.48v2.85h-2.47c-.72,0-1.44-.05-2.15-.17-.53-.08-1.02-.3-1.44-.63-.39-.34-.68-.79-.82-1.29-.2-.72-.29-1.46-.27-2.2v-12.5h-3.34v-2.85h3.34V1.61h3.23v5.89h3.93Z" fill="#155177"/>
    <path d="M322.53,25.89c-1.61,1.16-3.56,1.75-5.55,1.67-1.4.03-2.79-.23-4.09-.76-1.12-.48-2.11-1.21-2.91-2.13-.81-.95-1.41-2.07-1.77-3.27-.41-1.34-.63-2.74-.67-4.14-.02-1.4.22-2.79.68-4.1.43-1.19,1.08-2.29,1.92-3.23.82-.91,1.81-1.63,2.93-2.13,1.17-.52,2.43-.77,3.71-.76,1.52-.06,3.03.32,4.35,1.08,1.12.69,2.07,1.64,2.77,2.76.7,1.12,1.19,2.35,1.44,3.65.26,1.24.37,2.5.32,3.76h-14.71c-.03.83.07,1.66.3,2.45.22.75.59,1.45,1.1,2.05.53.61,1.19,1.1,1.94,1.43.88.37,1.82.55,2.77.53,1.19.05,2.37-.28,3.36-.95.92-.71,1.54-1.74,1.73-2.89h3.19c-.29,1.96-1.31,3.74-2.85,4.98h.04ZM321.75,13.28c-.28-.66-.68-1.26-1.18-1.77-.5-.5-1.1-.9-1.75-1.18-.7-.3-1.46-.45-2.22-.44-.78-.01-1.55.14-2.26.44-.65.28-1.24.69-1.73,1.2-.49.51-.87,1.11-1.14,1.77-.28.68-.45,1.41-.49,2.15h11.29c-.05-.75-.22-1.48-.51-2.17h0Z" fill="#155177"/>
    <path d="M343.35,27.15v-2.66h-.08c-.51,1.07-1.41,1.91-2.51,2.36-1.19.49-2.47.74-3.76.72-1.37.03-2.73-.25-3.97-.84-1.09-.53-2.05-1.3-2.81-2.24-.77-.97-1.34-2.08-1.69-3.27-.39-1.28-.58-2.61-.57-3.95,0-1.34.18-2.67.55-3.95.34-1.18.91-2.29,1.67-3.25.76-.94,1.72-1.69,2.81-2.2,1.23-.57,2.58-.85,3.93-.82.55,0,1.09.06,1.63.15.6.11,1.19.28,1.75.51.59.24,1.15.56,1.65.95.52.4.97.9,1.31,1.46h.08V0h3.23v27.13h-3.23.01ZM331.74,20.17c.22.84.6,1.63,1.1,2.34.5.69,1.15,1.25,1.9,1.63.84.42,1.78.63,2.72.61,1.85.08,3.6-.81,4.64-2.34.49-.72.85-1.53,1.04-2.38.44-1.81.43-3.69-.02-5.49-.21-.85-.57-1.66-1.08-2.38-.5-.69-1.16-1.26-1.92-1.65-.88-.44-1.86-.66-2.85-.63-.96-.03-1.92.19-2.77.65-.74.41-1.37,1-1.82,1.71-.47.75-.81,1.57-.99,2.43-.2.92-.31,1.87-.3,2.81,0,.91.12,1.81.36,2.68h-.01Z" fill="#155177"/>
    <path d="M198.19,34.51v5.02h-14.33v5.81h13.15v4.64h-13.15v6.65h14.63v5.02h-20.6v-27.13h20.3Z" fill="#155177"/>
    <path d="M215.56,61.65v-3.12h-.08c-.6,1.13-1.51,2.06-2.62,2.68-1.16.59-2.46.89-3.76.86-1.1.03-2.19-.14-3.23-.51-.81-.3-1.53-.81-2.09-1.46-.54-.66-.93-1.43-1.12-2.26-.22-.95-.33-1.93-.32-2.91v-12.92h3.23v13.3c-.06,1.07.33,2.11,1.06,2.89.79.74,1.85,1.12,2.93,1.06.88.02,1.75-.13,2.57-.46.69-.28,1.31-.73,1.8-1.29.49-.57.86-1.24,1.08-1.96.25-.79.37-1.62.36-2.45v-11.1h3.23v19.65h-3.04Z" fill="#155177"/>
    <path d="M226.39,42v4.14h.08c.63-1.41,1.63-2.63,2.89-3.53,1.3-.8,2.81-1.17,4.33-1.06v3.42c-1.13-.03-2.25.15-3.31.53-.86.32-1.62.85-2.2,1.56-.58.73-1,1.58-1.22,2.49-.27,1.1-.4,2.23-.38,3.36v8.74h-3.23v-19.65h3.04Z" fill="#155177"/>
    <path d="M234.98,47.79c.38-1.2,1-2.32,1.82-3.27.83-.94,1.85-1.68,3-2.19,2.64-1.06,5.59-1.06,8.23,0,1.14.5,2.16,1.25,2.98,2.19.83.95,1.45,2.06,1.82,3.27.41,1.31.62,2.67.61,4.05,0,1.37-.19,2.73-.61,4.03-.38,1.2-1,2.3-1.82,3.25-.82.93-1.84,1.67-2.98,2.17-2.64,1.04-5.58,1.04-8.23,0-1.15-.49-2.18-1.23-3-2.17-.82-.95-1.44-2.05-1.82-3.25-.41-1.3-.62-2.66-.61-4.03,0-1.37.19-2.74.61-4.05ZM238.26,55.02c.28.85.72,1.64,1.31,2.32.54.61,1.21,1.1,1.96,1.42,1.51.66,3.24.66,4.75,0,.75-.33,1.41-.81,1.96-1.42.59-.68,1.04-1.46,1.31-2.32.63-2.07.63-4.28,0-6.35-.28-.86-.73-1.65-1.31-2.34-.54-.62-1.21-1.11-1.96-1.44-1.51-.66-3.24-.66-4.75,0-.75.33-1.42.82-1.96,1.44-.59.69-1.03,1.48-1.31,2.34-.63,2.07-.63,4.28,0,6.35h0Z" fill="#155177"/>
    <path d="M260.59,42v2.66h.08c.52-1.07,1.41-1.92,2.51-2.38,1.19-.5,2.47-.76,3.76-.74,1.37-.03,2.73.25,3.97.84,1.1.53,2.06,1.31,2.81,2.26.76.98,1.34,2.1,1.69,3.29.39,1.28.58,2.61.57,3.95,0,1.34-.18,2.67-.55,3.95-.34,1.18-.91,2.29-1.67,3.25-.76.93-1.72,1.68-2.81,2.19-1.24.55-2.58.83-3.93.8-.54,0-1.08-.06-1.61-.15-.6-.1-1.2-.27-1.77-.49-.59-.23-1.15-.55-1.65-.93-.53-.4-.97-.9-1.31-1.46h-.08v10.11h-3.23v-27.13h3.23v-.02ZM272.2,48.97c-.22-.84-.6-1.63-1.1-2.34-.5-.69-1.15-1.25-1.9-1.63-.84-.42-1.78-.63-2.72-.61-1.85-.08-3.6.81-4.64,2.34-.49.72-.85,1.53-1.05,2.38-.44,1.81-.43,3.69.02,5.49.21.85.58,1.66,1.08,2.38.5.69,1.16,1.26,1.92,1.65.88.44,1.86.66,2.85.63.97.03,1.93-.19,2.79-.65.73-.42,1.35-1,1.8-1.71.47-.75.81-1.57.99-2.43.2-.92.31-1.87.3-2.81,0-.91-.12-1.81-.36-2.68h.02Z" fill="#155177"/>
    <path d="M293.69,60.39c-1.61,1.16-3.56,1.75-5.55,1.67-1.4.03-2.79-.23-4.09-.76-1.12-.48-2.11-1.21-2.91-2.13-.81-.95-1.41-2.07-1.77-3.27-.41-1.34-.63-2.74-.67-4.14-.02-1.4.22-2.79.68-4.1.43-1.19,1.08-2.29,1.92-3.23.82-.91,1.81-1.63,2.93-2.13,1.17-.52,2.43-.77,3.7-.76,1.52-.06,3.03.32,4.35,1.08,1.12.69,2.07,1.64,2.77,2.76.7,1.12,1.19,2.35,1.44,3.65.26,1.24.37,2.5.32,3.76h-14.7c-.03.83.07,1.66.3,2.45.22.75.59,1.45,1.1,2.05.53.61,1.19,1.1,1.94,1.43.88.37,1.82.55,2.77.53,1.19.05,2.37-.28,3.36-.95.92-.71,1.54-1.74,1.73-2.89h3.19c-.29,1.96-1.31,3.74-2.85,4.98h.04ZM292.91,47.78c-.28-.66-.68-1.26-1.18-1.77-.5-.5-1.1-.9-1.75-1.18-.7-.3-1.46-.45-2.22-.44-.78,0-1.55.14-2.26.44-.65.28-1.24.69-1.73,1.2-.49.51-.87,1.11-1.14,1.77-.28.68-.45,1.41-.49,2.15h11.29c-.05-.75-.22-1.48-.51-2.17h0Z" fill="#155177"/>
    <path d="M317.59,61.56c-.71.37-1.51.54-2.32.5-.73.04-1.45-.21-2-.7-.55-.63-.82-1.46-.74-2.3-.82,1.02-1.89,1.81-3.1,2.3-2.03.77-4.24.91-6.35.4-.75-.18-1.45-.5-2.07-.95-.59-.44-1.07-1.02-1.39-1.69-.36-.79-.54-1.66-.51-2.53-.04-.94.16-1.88.57-2.74.36-.69.87-1.28,1.5-1.73.65-.46,1.37-.8,2.13-1.01.8-.23,1.62-.42,2.45-.57.89-.18,1.73-.31,2.53-.4.71-.07,1.42-.2,2.11-.38.53-.13,1.02-.37,1.44-.72.37-.36.57-.87.53-1.39.03-.6-.11-1.19-.4-1.71-.25-.41-.6-.75-1.03-.99-.44-.23-.91-.39-1.41-.46-.51-.08-1.02-.11-1.54-.11-1.19-.04-2.37.23-3.42.78-.98.65-1.55,1.77-1.48,2.94h-3.23c.01-1.07.27-2.12.76-3.08.44-.81,1.06-1.51,1.82-2.03.79-.53,1.67-.91,2.6-1.12,1.03-.23,2.08-.35,3.13-.34.88,0,1.77.06,2.64.19.83.11,1.64.38,2.38.78.71.39,1.3.96,1.71,1.65.47.85.69,1.8.65,2.77v10.09c-.02.56.03,1.12.13,1.67.09.35.39.53.89.53.34,0,.67-.07.99-.19v2.54h.03ZM312.34,51.46c-.48.34-1.02.56-1.6.67-.66.14-1.35.25-2.07.34s-1.45.19-2.18.3c-.68.1-1.34.28-1.98.55-.56.24-1.05.61-1.42,1.08-.4.56-.59,1.24-.55,1.92-.02.47.1.94.32,1.35.21.36.49.66.84.89.36.24.77.4,1.2.49.47.1.96.15,1.44.15.93.02,1.86-.13,2.74-.44.68-.25,1.32-.62,1.86-1.1.45-.4.81-.89,1.06-1.44.21-.46.33-.96.34-1.46v-3.31h0Z" fill="#155177"/>
    <path d="M323.63,42v3.12h.08c1.25-2.33,3.74-3.72,6.38-3.57,1.1-.03,2.2.15,3.23.53.81.32,1.52.83,2.09,1.48.54.66.93,1.43,1.12,2.26.22.95.33,1.93.32,2.91v12.92h-3.23v-13.3c.06-1.07-.33-2.11-1.06-2.89-.79-.74-1.85-1.12-2.93-1.06-.88-.02-1.75.13-2.56.46-.69.28-1.31.73-1.8,1.29-.49.57-.86,1.24-1.08,1.96-.25.79-.37,1.62-.36,2.45v11.1h-3.23v-19.65h3.04-.01Z" fill="#155177"/>
    <path d="M193.97,95.94c-1.24.53-2.57.81-3.91.82-1.92.03-3.83-.34-5.61-1.08-1.6-.68-3.03-1.7-4.2-2.98-1.16-1.3-2.05-2.82-2.62-4.47-.62-1.78-.93-3.65-.91-5.53-.02-1.92.29-3.83.91-5.64.57-1.67,1.46-3.21,2.62-4.54,1.16-1.31,2.59-2.34,4.2-3.04,1.77-.76,3.68-1.13,5.61-1.1,1.37,0,2.74.21,4.05.63,1.28.4,2.47,1.03,3.53,1.84,2.23,1.72,3.63,4.3,3.86,7.11h-5.7c-.25-1.35-.98-2.56-2.05-3.42-1.07-.78-2.36-1.18-3.69-1.14-1.19-.04-2.36.23-3.42.78-.92.5-1.7,1.22-2.28,2.09-.6.91-1.03,1.92-1.27,2.98-.27,1.13-.4,2.29-.4,3.46s.13,2.24.4,3.33c.25,1.04.68,2.02,1.27,2.91.58.86,1.37,1.57,2.28,2.07,1.05.55,2.23.82,3.42.78,3.2.35,6.07-1.95,6.43-5.15.03-.23.04-.47.03-.71h-6v-4.45h11.4v14.67h-3.8l-.61-3.08c-.91,1.25-2.13,2.23-3.53,2.87h0Z" fill="#155177"/>
    <path d="M220.46,94.89c-1.61,1.16-3.56,1.75-5.55,1.67-1.4.03-2.79-.23-4.09-.76-1.12-.48-2.11-1.21-2.91-2.13-.81-.95-1.41-2.07-1.77-3.27-.41-1.34-.63-2.74-.67-4.14-.02-1.4.22-2.79.68-4.1.43-1.19,1.08-2.29,1.92-3.23.82-.91,1.81-1.63,2.93-2.13,1.17-.52,2.43-.77,3.71-.76,1.52-.06,3.03.32,4.35,1.08,1.12.69,2.07,1.64,2.77,2.76s1.19,2.35,1.44,3.65c.26,1.24.37,2.5.32,3.76h-14.71c-.03.83.07,1.66.3,2.45.22.75.59,1.45,1.1,2.05.53.61,1.19,1.1,1.94,1.43.88.37,1.82.55,2.77.53,1.19.05,2.37-.28,3.36-.95.92-.71,1.54-1.74,1.73-2.89h3.19c-.29,1.96-1.31,3.74-2.85,4.98h.04ZM219.68,82.28c-.27-.66-.67-1.26-1.18-1.77s-1.1-.9-1.75-1.18c-.7-.3-1.46-.45-2.22-.44-.78-.01-1.55.14-2.26.44-.65.28-1.24.69-1.73,1.2-.49.51-.87,1.11-1.14,1.77-.28.68-.45,1.41-.49,2.15h11.29c-.05-.75-.22-1.48-.51-2.17h-.01Z" fill="#155177"/>
    <path d="M230,76.5v3.12h.08c1.25-2.33,3.74-3.72,6.38-3.57,1.1-.03,2.2.15,3.23.53.81.32,1.52.83,2.09,1.48.54.66.93,1.43,1.12,2.26.22.95.33,1.93.32,2.91v12.92h-3.23v-13.3c.06-1.07-.33-2.11-1.06-2.89-.79-.74-1.85-1.12-2.93-1.06-.88-.02-1.75.13-2.56.46-.69.28-1.31.73-1.8,1.29-.49.57-.86,1.24-1.08,1.96-.25.79-.37,1.62-.36,2.45v11.1h-3.23v-19.65h3.04-.01Z" fill="#155177"/>
    <path d="M247.63,82.29c.38-1.2,1-2.32,1.82-3.27.83-.94,1.85-1.68,3-2.19,2.64-1.06,5.59-1.06,8.23,0,1.14.5,2.16,1.25,2.98,2.19.83.95,1.45,2.06,1.82,3.27.41,1.31.62,2.67.61,4.05.01,1.37-.19,2.73-.61,4.03-.38,1.2-1,2.3-1.82,3.25-.82.93-1.84,1.67-2.98,2.17-2.64,1.04-5.58,1.04-8.23,0-1.15-.49-2.18-1.23-3-2.17-.82-.95-1.44-2.05-1.82-3.25-.42-1.3-.62-2.66-.61-4.03,0-1.37.19-2.74.61-4.05h0ZM250.92,89.52c.28.85.72,1.64,1.31,2.32.54.61,1.21,1.1,1.96,1.42,1.51.66,3.24.66,4.75,0,.75-.33,1.41-.81,1.96-1.42.59-.68,1.03-1.46,1.31-2.32.63-2.07.63-4.28,0-6.35-.28-.86-.72-1.65-1.31-2.34-.54-.62-1.21-1.11-1.96-1.44-1.51-.66-3.24-.66-4.75,0-.75.33-1.42.82-1.96,1.44-.59.69-1.03,1.48-1.31,2.34-.63,2.07-.63,4.28,0,6.35Z" fill="#155177"/>
    <path d="M272.94,76.5v2.89h.08c2.13-3.13,6.24-4.23,9.65-2.58,1.02.54,1.77,1.47,2.09,2.58.63-1.04,1.53-1.89,2.6-2.47,1.09-.59,2.31-.89,3.55-.87.9-.01,1.8.1,2.68.32.75.19,1.44.53,2.05,1.01.58.47,1.04,1.08,1.33,1.77.34.83.5,1.71.47,2.6v14.4h-3.23v-12.88c0-.57-.05-1.15-.15-1.71-.09-.5-.28-.97-.57-1.39-.3-.41-.7-.73-1.16-.93-.61-.25-1.26-.37-1.92-.34-1.39-.08-2.75.42-3.76,1.37-.94.98-1.43,2.3-1.37,3.65v12.24h-3.23v-12.88c0-.59-.05-1.17-.17-1.75-.1-.5-.3-.97-.59-1.39-.29-.4-.67-.71-1.12-.91-.57-.23-1.19-.34-1.8-.32-.84-.02-1.67.17-2.41.57-1.2.65-2.1,1.73-2.55,3.02-.17.46-.27.94-.29,1.42v12.24h-3.23v-19.65h3.05Z" fill="#155177"/>
    <path d="M316.22,94.89c-1.61,1.16-3.56,1.75-5.55,1.67-1.4.03-2.79-.23-4.08-.76-1.12-.48-2.11-1.21-2.91-2.13-.81-.95-1.41-2.07-1.77-3.27-.41-1.34-.63-2.74-.66-4.14-.02-1.4.21-2.79.68-4.1.43-1.19,1.08-2.29,1.92-3.23.82-.91,1.81-1.63,2.93-2.13,1.17-.52,2.43-.77,3.7-.76,1.52-.06,3.03.32,4.35,1.08,1.12.69,2.07,1.64,2.77,2.76.7,1.12,1.19,2.35,1.44,3.65.26,1.24.37,2.5.32,3.76h-14.7c-.03.83.07,1.66.3,2.45.22.75.59,1.45,1.1,2.05.53.61,1.19,1.1,1.94,1.43.88.37,1.82.55,2.77.53,1.19.05,2.37-.28,3.36-.95.92-.71,1.54-1.74,1.73-2.89h3.19c-.29,1.96-1.31,3.74-2.85,4.98h.02ZM315.44,82.28c-.27-.66-.67-1.26-1.18-1.77-.5-.5-1.1-.9-1.75-1.18-.7-.3-1.46-.45-2.22-.44-.78-.01-1.55.14-2.26.44-.65.28-1.24.69-1.73,1.2-.49.51-.87,1.11-1.14,1.77-.28.68-.45,1.41-.49,2.15h11.29c-.05-.75-.22-1.48-.51-2.17h0Z" fill="#155177"/>
    <path d="M333.17,84.06v3.04h-10.98v-3.04h10.98Z" fill="#155177"/>
    <path d="M340.84,76.5v2.66h.08c.52-1.07,1.41-1.92,2.51-2.38,1.19-.5,2.47-.76,3.76-.74,1.37-.03,2.73.25,3.97.84,1.1.53,2.06,1.31,2.81,2.26.76.98,1.34,2.1,1.69,3.29.39,1.28.58,2.61.57,3.95,0,1.34-.18,2.67-.55,3.95-.34,1.18-.91,2.29-1.67,3.25-.76.93-1.72,1.68-2.81,2.19-1.24.55-2.58.83-3.93.8-.54,0-1.08-.06-1.61-.15-.6-.1-1.2-.27-1.77-.49-.59-.23-1.15-.55-1.65-.93-.53-.4-.97-.9-1.31-1.46h-.08v10.11h-3.23v-27.13h3.23v-.02ZM352.45,83.47c-.22-.84-.6-1.63-1.1-2.34-.5-.69-1.15-1.25-1.9-1.63-.84-.42-1.78-.63-2.72-.61-1.85-.08-3.6.81-4.64,2.34-.49.72-.85,1.53-1.05,2.38-.44,1.81-.43,3.69.02,5.49.21.85.58,1.66,1.08,2.38.5.69,1.16,1.26,1.92,1.65.88.44,1.86.66,2.85.63.97.03,1.94-.19,2.79-.65.73-.42,1.35-1,1.81-1.71.47-.75.8-1.57.99-2.43.2-.92.31-1.87.3-2.81,0-.91-.12-1.81-.36-2.68h.01Z" fill="#155177"/>
    <path d="M363.26,69.01v10.38h.08c.24-.58.6-1.11,1.06-1.54.46-.42.98-.77,1.54-1.03.57-.27,1.17-.46,1.79-.59.59-.12,1.2-.19,1.8-.19,1.1-.03,2.2.15,3.23.53.81.32,1.52.83,2.09,1.48.54.66.93,1.43,1.12,2.26.22.95.33,1.93.32,2.91v12.92h-3.23v-13.3c.06-1.07-.33-2.11-1.06-2.89-.79-.74-1.85-1.12-2.93-1.06-.88-.02-1.75.13-2.56.46-.69.28-1.31.73-1.81,1.29-.49.57-.86,1.24-1.08,1.96-.25.79-.37,1.62-.36,2.45v11.1h-3.23v-27.13h3.23,0Z" fill="#155177"/>
    <path d="M395.07,94.89c-1.61,1.16-3.56,1.75-5.55,1.67-1.4.03-2.79-.23-4.08-.76-1.12-.48-2.11-1.21-2.91-2.13-.81-.95-1.41-2.07-1.77-3.27-.41-1.34-.63-2.74-.67-4.14-.02-1.4.22-2.79.68-4.1.43-1.19,1.08-2.29,1.92-3.23.82-.91,1.81-1.63,2.93-2.13,1.17-.52,2.43-.77,3.71-.76,1.52-.06,3.03.32,4.35,1.08,1.12.69,2.07,1.64,2.77,2.76.7,1.12,1.19,2.35,1.44,3.65.26,1.24.37,2.5.32,3.76h-14.71c-.03.83.07,1.66.3,2.45.22.75.59,1.45,1.1,2.05.53.61,1.19,1.1,1.94,1.43.88.37,1.82.55,2.77.53,1.19.05,2.37-.28,3.36-.95.92-.71,1.54-1.74,1.73-2.89h3.19c-.29,1.96-1.31,3.74-2.85,4.98h.03ZM394.29,82.28c-.27-.66-.67-1.26-1.18-1.77-.5-.5-1.1-.9-1.75-1.18-.7-.3-1.46-.45-2.22-.44-.78-.01-1.55.14-2.26.44-.65.28-1.24.69-1.73,1.2-.49.51-.87,1.11-1.14,1.77-.28.68-.45,1.41-.49,2.15h11.29c-.05-.75-.22-1.48-.51-2.17h0Z" fill="#155177"/>
    <path d="M404.6,76.5v3.12h.08c1.25-2.33,3.74-3.72,6.38-3.57,1.1-.03,2.2.15,3.23.53.81.32,1.52.83,2.09,1.48.54.66.93,1.43,1.12,2.26.22.95.33,1.93.32,2.91v12.92h-3.23v-13.3c.06-1.07-.33-2.11-1.06-2.89-.79-.74-1.85-1.12-2.93-1.06-.88-.02-1.75.13-2.56.46-.69.28-1.31.73-1.8,1.29-.49.57-.86,1.24-1.08,1.96-.25.79-.37,1.62-.36,2.45v11.1h-3.23v-19.65h3.04-.01Z" fill="#155177"/>
    <path d="M422.24,82.29c.38-1.2,1-2.32,1.82-3.27.83-.94,1.85-1.68,3-2.19,2.64-1.06,5.59-1.06,8.23,0,1.14.5,2.16,1.25,2.98,2.19.83.95,1.45,2.06,1.82,3.27.41,1.31.62,2.67.61,4.05.01,1.37-.19,2.73-.61,4.03-.38,1.2-1,2.3-1.82,3.25-.82.93-1.84,1.67-2.98,2.17-2.64,1.04-5.58,1.04-8.23,0-1.15-.49-2.18-1.23-3-2.17-.82-.95-1.44-2.05-1.82-3.25-.42-1.3-.62-2.66-.61-4.03-.01-1.37.19-2.74.61-4.05ZM425.52,89.52c.28.85.72,1.64,1.31,2.32.54.61,1.21,1.1,1.96,1.42,1.51.66,3.24.66,4.75,0,.75-.33,1.41-.81,1.96-1.42.59-.68,1.03-1.46,1.31-2.32.63-2.07.63-4.28,0-6.35-.28-.86-.72-1.65-1.31-2.34-.54-.62-1.21-1.11-1.96-1.44-1.51-.66-3.24-.66-4.75,0-.75.33-1.42.82-1.96,1.44-.59.69-1.03,1.48-1.31,2.34-.63,2.07-.63,4.28,0,6.35Z" fill="#155177"/>
    <path d="M447.54,76.5v2.89h.08c2.13-3.13,6.24-4.23,9.65-2.58,1.02.54,1.77,1.47,2.09,2.58.63-1.04,1.53-1.89,2.6-2.47,1.09-.59,2.31-.89,3.55-.87.9-.01,1.8.1,2.68.32.75.19,1.44.53,2.05,1.01.58.47,1.04,1.08,1.33,1.77.34.83.5,1.71.47,2.6v14.4h-3.23v-12.88c0-.57-.05-1.15-.15-1.71-.09-.5-.28-.97-.57-1.39-.3-.41-.7-.73-1.16-.93-.61-.25-1.26-.37-1.92-.34-1.39-.08-2.75.42-3.76,1.37-.94.98-1.43,2.3-1.37,3.65v12.24h-3.23v-12.88c0-.59-.05-1.17-.17-1.75-.1-.5-.3-.97-.59-1.39-.29-.4-.67-.71-1.12-.91-.57-.23-1.19-.34-1.8-.32-.84-.02-1.67.17-2.41.57-1.2.65-2.1,1.73-2.55,3.02-.17.46-.26.94-.29,1.42v12.24h-3.23v-19.65h3.05Z" fill="#155177"/>
    <path d="M490.83,94.89c-1.61,1.16-3.56,1.75-5.55,1.67-1.4.03-2.79-.23-4.08-.76-1.12-.48-2.11-1.21-2.91-2.13-.81-.95-1.41-2.07-1.77-3.27-.41-1.34-.63-2.74-.66-4.14-.02-1.4.21-2.79.68-4.1.43-1.19,1.08-2.29,1.92-3.23.82-.91,1.81-1.63,2.93-2.13,1.17-.52,2.43-.77,3.71-.76,1.52-.06,3.03.32,4.35,1.08,1.12.69,2.07,1.64,2.77,2.76.7,1.12,1.19,2.35,1.44,3.65.26,1.24.37,2.5.32,3.76h-14.71c-.03.83.07,1.66.3,2.45.22.75.59,1.45,1.1,2.05.53.61,1.19,1.1,1.94,1.43.88.37,1.82.55,2.77.53,1.19.05,2.37-.28,3.36-.95.92-.71,1.54-1.74,1.73-2.89h3.19c-.29,1.96-1.31,3.74-2.85,4.98h.02ZM490.05,82.28c-.27-.66-.67-1.26-1.18-1.77-.5-.5-1.1-.9-1.75-1.18-.7-.3-1.46-.45-2.22-.44-.78-.01-1.55.14-2.26.44-.65.28-1.24.69-1.73,1.2-.49.51-.87,1.11-1.14,1.77-.28.68-.45,1.41-.49,2.15h11.29c-.05-.75-.22-1.48-.51-2.17h0Z" fill="#155177"/>
    <path d="M191.43,103.51l10.15,27.13h-6.19l-2.05-6.04h-10.15l-2.13,6.04h-6l10.26-27.13h6.12,0ZM191.77,120.16l-3.42-9.96h-.08l-3.53,9.96h7.03Z" fill="#155177"/>
    <path d="M206.67,111v4.14h.08c.63-1.41,1.63-2.63,2.89-3.53,1.3-.8,2.81-1.17,4.33-1.06v3.42c-1.13-.03-2.25.15-3.31.53-.86.32-1.62.85-2.2,1.56-.58.73-1,1.58-1.22,2.49-.27,1.1-.4,2.23-.38,3.36v8.74h-3.23v-19.65s3.04,0,3.04,0Z" fill="#155177"/>
    <path d="M227.45,114.42c-.93-.72-2.09-1.09-3.27-1.03-1.01-.03-2.02.19-2.93.65-.76.41-1.4.99-1.88,1.71-.48.75-.83,1.58-1.01,2.45-.2.94-.31,1.9-.3,2.87,0,.9.11,1.79.32,2.66.2.82.54,1.6,1.01,2.3.46.67,1.07,1.23,1.79,1.62.81.42,1.71.63,2.62.61,1.36.08,2.7-.37,3.74-1.25.95-.95,1.54-2.2,1.65-3.53h3.31c-.21,2.14-1.17,4.13-2.72,5.62-1.66,1.39-3.79,2.1-5.95,1.98-1.36.03-2.71-.22-3.97-.72-1.11-.45-2.1-1.15-2.89-2.05-.8-.93-1.39-2.01-1.75-3.17-.4-1.31-.6-2.68-.59-4.05,0-1.39.18-2.78.57-4.12.35-1.22.94-2.36,1.73-3.34.78-.96,1.78-1.73,2.91-2.24,1.28-.57,2.67-.85,4.07-.82,1.06,0,2.11.13,3.14.4.93.25,1.81.66,2.58,1.23.75.57,1.38,1.29,1.84,2.11.51.93.82,1.96.91,3.02h-3.34c-.18-1.12-.75-2.14-1.6-2.89v-.02Z" fill="#155177"/>
    <path d="M239.35,103.51v10.38h.08c.24-.58.6-1.11,1.06-1.54.46-.42.98-.76,1.54-1.03.57-.27,1.17-.46,1.79-.59.59-.12,1.2-.19,1.81-.19,1.1-.03,2.2.15,3.23.53.81.32,1.52.83,2.09,1.48.54.66.93,1.43,1.12,2.26.22.95.33,1.93.32,2.91v12.92h-3.23v-13.3c.06-1.07-.33-2.11-1.06-2.89-.79-.74-1.85-1.12-2.93-1.06-.88-.02-1.75.13-2.57.46-.69.28-1.31.73-1.8,1.29-.49.57-.86,1.24-1.08,1.96-.25.79-.37,1.62-.36,2.45v11.1h-3.23v-27.13h3.23,0Z" fill="#155177"/>
    <path d="M257.43,107.47v-3.95h3.23v3.95h-3.23ZM260.66,111v19.65h-3.23v-19.65s3.23,0,3.23,0Z" fill="#155177"/>
    <path d="M271.08,130.65l-7.3-19.65h3.61l5.51,16.38h.08l5.36-16.38h3.38l-7.18,19.65h-3.46Z" fill="#155177"/>
    <path d="M298.59,129.39c-1.61,1.16-3.56,1.75-5.55,1.67-1.4.03-2.79-.23-4.08-.76-1.12-.48-2.11-1.21-2.91-2.13-.81-.96-1.41-2.07-1.77-3.27-.41-1.34-.63-2.74-.67-4.14-.02-1.4.21-2.79.68-4.1.43-1.19,1.08-2.29,1.92-3.23.82-.91,1.81-1.63,2.93-2.13,1.17-.52,2.43-.77,3.71-.76,1.52-.06,3.03.32,4.35,1.08,1.12.69,2.07,1.64,2.77,2.76.7,1.12,1.19,2.35,1.44,3.65.26,1.24.37,2.5.32,3.76h-14.71c-.03.83.07,1.66.3,2.45.22.75.59,1.45,1.1,2.05.53.61,1.19,1.1,1.94,1.43.88.37,1.82.55,2.77.53,1.19.05,2.37-.28,3.36-.95.92-.71,1.54-1.74,1.73-2.89h3.19c-.29,1.96-1.31,3.74-2.85,4.98h.03ZM297.81,116.78c-.27-.66-.67-1.26-1.18-1.77-.5-.5-1.1-.9-1.75-1.18-.7-.3-1.46-.45-2.22-.44-.78-.01-1.55.14-2.26.44-.65.28-1.24.69-1.73,1.2-.49.51-.87,1.11-1.14,1.77-.28.68-.45,1.41-.49,2.15h11.29c-.05-.75-.22-1.48-.51-2.17h0Z" fill="#155177"/>
  </g>
  <g id="Layer_2">
    <g>
      <path d="M177.89,166.67v-26.01h9.48c2.16,0,3.91.4,5.25,1.19,1.34.79,2.32,1.83,2.94,3.1s.94,2.64.94,4.1c0,1.85-.42,3.4-1.25,4.66-.83,1.26-1.92,2.21-3.26,2.85s-2.79.96-4.35.96h-4.02v9.17h-5.73v-.02ZM183.63,152.75h3.43c1.07,0,1.92-.34,2.57-1.01.65-.68.98-1.53.98-2.57s-.33-1.98-.98-2.67-1.52-1.03-2.61-1.03h-3.39v7.29h0Z" fill="#5e9cc3"/>
      <path d="M197.98,157.51c0-1.79.42-3.43,1.25-4.91.83-1.48,1.98-2.66,3.45-3.53s3.18-1.31,5.13-1.31,3.66.44,5.13,1.31,2.61,2.05,3.43,3.53c.82,1.48,1.23,3.12,1.23,4.91s-.41,3.43-1.23,4.91c-.82,1.48-1.96,2.67-3.43,3.55-1.47.88-3.18,1.33-5.13,1.33s-3.66-.44-5.13-1.33-2.62-2.07-3.45-3.55-1.25-3.12-1.25-4.91ZM207.81,162.42c.96,0,1.76-.23,2.4-.7s1.12-1.08,1.46-1.83c.34-.75.51-1.55.51-2.38s-.17-1.62-.51-2.36-.83-1.35-1.46-1.81c-.64-.47-1.44-.7-2.4-.7s-1.74.23-2.4.7c-.66.47-1.16,1.07-1.5,1.81-.34.74-.51,1.53-.51,2.36s.17,1.62.51,2.38.84,1.37,1.5,1.83c.66.47,1.46.7,2.4.7Z" fill="#5e9cc3"/>
      <path d="M220.91,166.67v-26.01h5.62v26.01h-5.62Z" fill="#5e9cc3"/>
      <path d="M241.42,166.67l-.16-1.72c-1.3,1.51-3.15,2.26-5.54,2.26-.86,0-1.76-.16-2.71-.49-.95-.33-1.76-.9-2.44-1.74s-1.01-1.98-1.01-3.43.37-2.64,1.11-3.63,1.75-1.74,3.02-2.24,2.7-.76,4.29-.76c.65,0,1.31,0,1.97.04s1.1.07,1.31.12v-.39c0-.94-.36-1.6-1.07-2.01s-1.53-.6-2.44-.6c-1.22,0-2.25.16-3.08.47s-1.53.66-2.11,1.05l-2.3-3.43c.75-.6,1.78-1.15,3.08-1.66,1.3-.51,3.03-.76,5.19-.76,2.78,0,4.84.75,6.16,2.24,1.32,1.5,1.99,3.5,1.99,6.03v10.65h-5.27.01ZM241.27,160.08v-1.48c-.13-.03-.38-.06-.74-.1-.37-.04-.78-.06-1.25-.06-1.56,0-2.67.22-3.31.66-.65.44-.98,1.07-.98,1.87,0,1.51.91,2.26,2.73,2.26.88,0,1.7-.27,2.44-.82s1.11-1.33,1.11-2.34h0Z" fill="#5e9cc3"/>
      <path d="M250.78,166.67v-18.29h5.38l.16,1.99c.6-.73,1.39-1.31,2.38-1.76.99-.44,2-.66,3.04-.66,2.08,0,3.74.62,4.99,1.87s1.87,3.09,1.87,5.54v11.31h-5.62v-10.53c0-1.01-.25-1.82-.76-2.42-.51-.6-1.22-.9-2.13-.9-1.22,0-2.15.4-2.79,1.21-.64.81-.96,1.74-.96,2.81v9.83h-5.58.02Z" fill="#5e9cc3"/>
      <path d="M285.34,166.67l-.23-1.83c-.57.65-1.31,1.21-2.2,1.68-.9.47-1.92.7-3.06.7-1.48,0-2.83-.38-4.04-1.15s-2.17-1.86-2.89-3.28c-.71-1.42-1.07-3.09-1.07-5.01,0-1.64.29-3.07.86-4.31.57-1.23,1.33-2.25,2.28-3.06.95-.8,1.98-1.41,3.1-1.81s2.22-.6,3.31-.6c.88,0,1.58.06,2.09.18s1.01.27,1.5.45v-7.96h5.58v26.01h-5.23,0ZM284.99,158.4v-4.99c-.73-.44-1.72-.66-2.96-.66-1.43,0-2.54.48-3.33,1.44-.79.96-1.19,2.2-1.19,3.71,0,1.33.33,2.41.99,3.26s1.63,1.27,2.91,1.27,2.19-.41,2.75-1.23c.56-.82.84-1.75.84-2.79h-.01Z" fill="#5e9cc3"/>
    </g>
  </g>
</svg>