<svg id="Layer_1" data-name="Layer 1" xmlns="http://www.w3.org/2000/svg" width="222.05mm" height="80mm" viewBox="0 0 629.43 226.77">
  <defs>
    <style>
      .cls-1 {
        fill: #f6c75e;
      }

      .cls-2 {
        fill: #eb9661;
      }

      .cls-3 {
        fill: #5e9cc3;
      }

      .cls-4 {
        fill: #155177;
      }
    </style>
  </defs>
  <g>
    <g>
      <path class="cls-1" d="M22.3,142.27v26.54c0,14.66,38.78,26.54,86.63,26.54V168.81C61.08,168.81,22.3,156.93,22.3,142.27Z"/>
      <path class="cls-2" d="M22.3,105.25v26.54c0,14.65,38.78,26.54,86.63,26.54V131.79C61.08,131.79,22.3,119.9,22.3,105.25Z"/>
      <g>
        <path class="cls-3" d="M22.3,68.22V94.76c0,14.66,38.78,26.54,86.63,26.54V94.76C61.08,94.76,22.3,82.88,22.3,68.22Z"/>
        <path class="cls-4" d="M22.3,57.6c0,14.66,38.78,26.54,86.63,26.54V31.06C61.08,31.06,22.3,42.94,22.3,57.6Z"/>
      </g>
    </g>
    <path class="cls-4" d="M138.4,58.21a12.77,12.77,0,0,0,9.38-4,13.47,13.47,0,0,0,0-19.06,12.81,12.81,0,0,0-9.38-4,13.57,13.57,0,0,0-13.5,13.61,13.52,13.52,0,0,0,13.5,13.42Z"/>
    <path class="cls-1" d="M140.37,197.07a1.41,1.41,0,0,0,.58.58,1.49,1.49,0,0,0,.74.25l7.4-1.33a.86.86,0,0,0,.75-.41,1.66,1.66,0,0,0,.24-.75L147,169.83H132.7Z"/>
    <g>
      <path class="cls-2" d="M127.37,152.83a3.22,3.22,0,0,1,.57.83c.17.32.3.6.41.82l1.39,4.91h16L144,145a3.48,3.48,0,0,0-.24-1c-.17-.44-.31-.77-.42-1l-5.67-10.84h-21v8.41Z"/>
      <path class="cls-3" d="M176.5,109.17a1.43,1.43,0,0,0-.41-.75L157.72,94.58H116.66v27.18H132.2l-3.68-7a2,2,0,0,1-.17-.91,2.09,2.09,0,0,1,.17-.92l7.73-17.56a.71.71,0,0,1,.5-.41.67.67,0,0,1,.66.24l7.73,6.8a4.82,4.82,0,0,0,.83.66,4.07,4.07,0,0,0,1,.5l24.69,12.42a1.31,1.31,0,0,0,1.48-.49l3.29-5.14A1.11,1.11,0,0,0,176.5,109.17Z"/>
      <path class="cls-4" d="M149.59,84.14,142.68,65.5a3.44,3.44,0,0,0-.58-.74l-.74-.75-15.47-8.45a7,7,0,0,0-1-.25,2.12,2.12,0,0,0-1,.09l-7.25,3.14v25.6Z"/>
    </g>
  </g>
  <g>
    <path class="cls-4" d="M227.57,31.07v6.26H211.2v7.83h14.19V51H211.2V65h-7.44V31.07Z"/>
    <path class="cls-4" d="M249,63.38a11.14,11.14,0,0,1-6.92,2.09,12.71,12.71,0,0,1-5.1-1,10,10,0,0,1-3.63-2.66,11.18,11.18,0,0,1-2.21-4.08,19.32,19.32,0,0,1-.83-5.17,14.65,14.65,0,0,1,.86-5.12,12.17,12.17,0,0,1,2.39-4,11,11,0,0,1,8.28-3.6,10.13,10.13,0,0,1,5.43,1.35,10.86,10.86,0,0,1,3.47,3.44,13.67,13.67,0,0,1,1.8,4.55,20,20,0,0,1,.4,4.7H234.59a9.56,9.56,0,0,0,.38,3.06,6.78,6.78,0,0,0,1.38,2.56,6.57,6.57,0,0,0,2.42,1.78,8.36,8.36,0,0,0,3.46.66,7,7,0,0,0,4.2-1.18,5.77,5.77,0,0,0,2.16-3.61h4A9.78,9.78,0,0,1,249,63.38Zm-1-15.75a6.84,6.84,0,0,0-1.47-2.21A7.31,7.31,0,0,0,244.39,44a7,7,0,0,0-2.78-.54,7.13,7.13,0,0,0-2.78.54,6.51,6.51,0,0,0-2.16,1.5,7,7,0,0,0-1.42,2.2,8.57,8.57,0,0,0-.62,2.68h14.09a8.42,8.42,0,0,0-.68-2.75Z"/>
    <path class="cls-4" d="M275,64.94V61.62h-.09a6,6,0,0,1-3.09,2.94,11.84,11.84,0,0,1-4.69.91,11,11,0,0,1-5-1,10,10,0,0,1-3.51-2.8,11.94,11.94,0,0,1-2.11-4.08,16.16,16.16,0,0,1-.71-4.93,17.46,17.46,0,0,1,.68-4.93,11.54,11.54,0,0,1,2.09-4.06,10.25,10.25,0,0,1,3.51-2.75,11.2,11.2,0,0,1,4.91-1,12.2,12.2,0,0,1,2,.19,10.56,10.56,0,0,1,2.19.64,9.81,9.81,0,0,1,2.06,1.18,7,7,0,0,1,1.64,1.83H275V31.07h4V64.94Zm-14.49-8.7a9,9,0,0,0,1.37,2.92,6.75,6.75,0,0,0,2.37,2,7.26,7.26,0,0,0,3.4.75,6.86,6.86,0,0,0,3.46-.8A7.13,7.13,0,0,0,273.45,59a9.12,9.12,0,0,0,1.3-3,14.51,14.51,0,0,0,0-6.85,9,9,0,0,0-1.36-3A7,7,0,0,0,271,44.09a7.59,7.59,0,0,0-3.56-.78,6.91,6.91,0,0,0-3.46.8,6.41,6.41,0,0,0-2.28,2.14,8.94,8.94,0,0,0-1.23,3,15.35,15.35,0,0,0-.38,3.51A12,12,0,0,0,260.52,56.24Z"/>
    <path class="cls-4" d="M302.62,63.38a11.19,11.19,0,0,1-6.93,2.09,12.71,12.71,0,0,1-5.1-1A10,10,0,0,1,287,61.81a11.16,11.16,0,0,1-2.2-4.08,19.32,19.32,0,0,1-.83-5.17,14.42,14.42,0,0,1,.85-5.12,12.2,12.2,0,0,1,2.4-4,11,11,0,0,1,8.28-3.59,10.13,10.13,0,0,1,5.43,1.35,10.83,10.83,0,0,1,3.46,3.44,13.44,13.44,0,0,1,1.79,4.55,19,19,0,0,1,.41,4.7H288.2a9.29,9.29,0,0,0,.38,3.06,6.65,6.65,0,0,0,3.79,4.34,8.38,8.38,0,0,0,3.46.71A7,7,0,0,0,300,60.82a5.77,5.77,0,0,0,2.16-3.61h4A9.89,9.89,0,0,1,302.62,63.38Zm-1-15.75A6.56,6.56,0,0,0,298,44a6.94,6.94,0,0,0-2.77-.54,7.15,7.15,0,0,0-2.82.54,6.51,6.51,0,0,0-2.16,1.5,7.07,7.07,0,0,0-1.43,2.2,8.29,8.29,0,0,0-.61,2.68h14.09a8.75,8.75,0,0,0-.64-2.75Z"/>
    <path class="cls-4" d="M314.37,40.42v5.17h.1a11.13,11.13,0,0,1,3.6-4.41,9.12,9.12,0,0,1,5.41-1.33v4.27a11.65,11.65,0,0,0-4.13.66,6.61,6.61,0,0,0-2.75,1.95,8.15,8.15,0,0,0-1.51,3.1,17.52,17.52,0,0,0-.48,4.2V64.94h-4V40.42Z"/>
    <path class="cls-4" d="M348.25,64.84a5.6,5.6,0,0,1-2.9.63,3.52,3.52,0,0,1-2.49-.88,3.85,3.85,0,0,1-.92-2.87,9.5,9.5,0,0,1-3.87,2.87,13.31,13.31,0,0,1-7.92.5,7.36,7.36,0,0,1-2.59-1.19,5.76,5.76,0,0,1-1.74-2.11,7.16,7.16,0,0,1-.64-3.16,7.29,7.29,0,0,1,.71-3.41,6.36,6.36,0,0,1,1.93-2.16,9.09,9.09,0,0,1,2.65-1.26c1-.28,2-.52,3.06-.71s2.16-.39,3.16-.5a16.65,16.65,0,0,0,2.63-.47,4.43,4.43,0,0,0,1.8-.9,2.16,2.16,0,0,0,.67-1.73,4,4,0,0,0-.5-2.14A3.29,3.29,0,0,0,340,44.12a4.92,4.92,0,0,0-1.76-.57,13.56,13.56,0,0,0-1.92-.14,8.61,8.61,0,0,0-4.27,1c-1.14.65-1.75,1.87-1.85,3.68h-4a8.86,8.86,0,0,1,1-3.85,7.29,7.29,0,0,1,2.28-2.53,9.52,9.52,0,0,1,3.24-1.4,17.31,17.31,0,0,1,3.92-.43,22.69,22.69,0,0,1,3.3.24,8.31,8.31,0,0,1,3,1A5.5,5.5,0,0,1,345,43.18a6.5,6.5,0,0,1,.8,3.45V59.16a9.78,9.78,0,0,0,.17,2.09q.18.66,1.11.66a3.69,3.69,0,0,0,1.24-.24ZM341.7,52.23a5,5,0,0,1-2,.83c-.83.17-1.69.32-2.59.43s-1.81.23-2.73.38a10.11,10.11,0,0,0-2.46.68,4.66,4.66,0,0,0-1.78,1.36,3.85,3.85,0,0,0-.69,2.39,3.14,3.14,0,0,0,1.45,2.8,4.33,4.33,0,0,0,1.49.62,8.47,8.47,0,0,0,1.8.19,9.44,9.44,0,0,0,3.42-.55A7,7,0,0,0,339.94,60a5.28,5.28,0,0,0,1.33-1.81,4.27,4.27,0,0,0,.43-1.82Z"/>
    <path class="cls-4" d="M362.48,40.42V44h-4.89V59.2a4.33,4.33,0,0,0,.12,1.14,1.2,1.2,0,0,0,.45.67,1.93,1.93,0,0,0,.93.3,11.44,11.44,0,0,0,1.54.08h1.85v3.55h-3.09a15.13,15.13,0,0,1-2.68-.21,3.92,3.92,0,0,1-1.8-.78,3.44,3.44,0,0,1-1-1.61,9.89,9.89,0,0,1-.33-2.76V44H349.4V40.42h4.18V33.06h4v7.36Z"/>
    <path class="cls-4" d="M384.3,63.38a11.15,11.15,0,0,1-6.93,2.09,12.78,12.78,0,0,1-5.1-1,10.14,10.14,0,0,1-3.63-2.66,11.46,11.46,0,0,1-2.2-4.08,20.15,20.15,0,0,1-.83-5.17,14.88,14.88,0,0,1,.85-5.12,12.55,12.55,0,0,1,2.4-4,10.93,10.93,0,0,1,8.28-3.6,10.09,10.09,0,0,1,5.43,1.35A10.63,10.63,0,0,1,386,44.63a13.26,13.26,0,0,1,1.8,4.55,19,19,0,0,1,.41,4.7H369.88a9.56,9.56,0,0,0,.38,3.06,6.9,6.9,0,0,0,1.37,2.56,6.65,6.65,0,0,0,2.42,1.78,8.43,8.43,0,0,0,3.46.66,7,7,0,0,0,4.2-1.18,5.69,5.69,0,0,0,2.16-3.61h4A9.79,9.79,0,0,1,384.3,63.38Zm-1-15.75a7.15,7.15,0,0,0-1.48-2.21A7.31,7.31,0,0,0,374.08,44a6.61,6.61,0,0,0-2.16,1.5,7.45,7.45,0,0,0-1.43,2.2,8.85,8.85,0,0,0-.61,2.68H384a8.23,8.23,0,0,0-.64-2.75Z"/>
    <path class="cls-4" d="M410.3,64.94V61.62h-.1a5.85,5.85,0,0,1-3.13,2.94,11.82,11.82,0,0,1-4.7.91,11.06,11.06,0,0,1-5-1,10.27,10.27,0,0,1-3.51-2.8,12.56,12.56,0,0,1-2-4.13,17.71,17.71,0,0,1,0-9.86,11.72,11.72,0,0,1,2-4.06,10,10,0,0,1,3.51-2.75,11.23,11.23,0,0,1,4.91-1,12.2,12.2,0,0,1,2,.19,10.3,10.3,0,0,1,2.18.64,9,9,0,0,1,2.06,1.18,6.37,6.37,0,0,1,1.64,1.83h.1V31.07h4V64.94Zm-14.48-8.7a9,9,0,0,0,1.38,2.92,6.93,6.93,0,0,0,2.37,2,7.27,7.27,0,0,0,3.39.75,6.81,6.81,0,0,0,3.46-.8A7,7,0,0,0,408.73,59a8.72,8.72,0,0,0,1.3-3,14.18,14.18,0,0,0,0-6.85,8.64,8.64,0,0,0-1.35-3,7,7,0,0,0-2.4-2.06,7.42,7.42,0,0,0-3.56-.78,7,7,0,0,0-3.46.8A6.58,6.58,0,0,0,397,46.25a9.6,9.6,0,0,0-1.23,3,16.55,16.55,0,0,0-.38,3.51A13.15,13.15,0,0,0,395.82,56.24Z"/>
    <path class="cls-4" d="M229.09,74.14V80.4H211.2v7.26h16.42v5.79H211.2v8.3h18.27V108H203.76V74.14Z"/>
    <path class="cls-4" d="M250.77,108v-3.89h-.09a8.33,8.33,0,0,1-3.28,3.35,9.81,9.81,0,0,1-4.69,1.07,11.08,11.08,0,0,1-4-.65,6.37,6.37,0,0,1-2.61-1.82,6.81,6.81,0,0,1-1.4-2.82,14.8,14.8,0,0,1-.4-3.63V83.49h4v16.6a4.6,4.6,0,0,0,4.22,5,5.08,5.08,0,0,0,.78,0,8.25,8.25,0,0,0,3.21-.57,6.12,6.12,0,0,0,2.25-1.62,6.88,6.88,0,0,0,1.35-2.44,10.21,10.21,0,0,0,.45-3.06V83.49h4V108Z"/>
    <path class="cls-4" d="M264.29,83.49v5.17h.09A11,11,0,0,1,268,84.25a9.09,9.09,0,0,1,5.41-1.33v4.27a11.57,11.57,0,0,0-4.13.66,6.45,6.45,0,0,0-2.75,2A7.89,7.89,0,0,0,265,93a16.12,16.12,0,0,0-.47,4.2V108h-4V83.49Z"/>
    <path class="cls-4" d="M275,90.72a11.5,11.5,0,0,1,2.28-4.08A10.71,10.71,0,0,1,281,83.91a13.81,13.81,0,0,1,10.27,0A11,11,0,0,1,295,86.64a11.81,11.81,0,0,1,2.28,4.08,17,17,0,0,1,.76,5,16.61,16.61,0,0,1-.76,5,11.63,11.63,0,0,1-2.28,4.06,10.45,10.45,0,0,1-3.72,2.7,13.91,13.91,0,0,1-10.27,0,10.39,10.39,0,0,1-3.75-2.7,11.33,11.33,0,0,1-2.28-4.06,16,16,0,0,1-.76-5A16.35,16.35,0,0,1,275,90.72Zm4.1,9a8.3,8.3,0,0,0,1.64,2.89,7.06,7.06,0,0,0,2.44,1.78,7.57,7.57,0,0,0,6,0,7.29,7.29,0,0,0,2.45-1.78,8.46,8.46,0,0,0,1.64-2.89,13.73,13.73,0,0,0,0-7.93,9,9,0,0,0-1.64-2.91,7.27,7.27,0,0,0-2.45-1.81,7.68,7.68,0,0,0-6,0,7,7,0,0,0-2.44,1.81,8.65,8.65,0,0,0-1.64,2.91A13.56,13.56,0,0,0,279.11,99.72Z"/>
    <path class="cls-4" d="M307,83.49v3.32h.09a6.1,6.1,0,0,1,3.13-3,11.86,11.86,0,0,1,4.7-.92,11.14,11.14,0,0,1,5,1,10.17,10.17,0,0,1,3.51,2.83,12.4,12.4,0,0,1,2.11,4.1,16.8,16.8,0,0,1,.71,4.93,17.19,17.19,0,0,1-.69,4.94,11.28,11.28,0,0,1-2.09,4,9.57,9.57,0,0,1-3.51,2.73,11.34,11.34,0,0,1-4.91,1,12.31,12.31,0,0,1-2-.19,11.54,11.54,0,0,1-2.21-.62,8.38,8.38,0,0,1-2.06-1.16,6.68,6.68,0,0,1-1.64-1.83H307v12.62h-4V83.49Zm14.49,8.7a8.66,8.66,0,0,0-1.38-2.91,6.46,6.46,0,0,0-2.37-2,7.11,7.11,0,0,0-3.39-.76,6.66,6.66,0,0,0-5.79,2.91,8.92,8.92,0,0,0-1.3,3,14.43,14.43,0,0,0,0,6.85,8.85,8.85,0,0,0,1.35,3,7.09,7.09,0,0,0,2.4,2.06,7.6,7.6,0,0,0,3.56.79,6.87,6.87,0,0,0,3.48-.81,6.35,6.35,0,0,0,2.26-2.14,8.85,8.85,0,0,0,1.23-3,15.35,15.35,0,0,0,.38-3.51A12.44,12.44,0,0,0,321.47,92.19Z"/>
    <path class="cls-4" d="M348.3,106.45a11.15,11.15,0,0,1-6.93,2.09,12.78,12.78,0,0,1-5.1-1,10.14,10.14,0,0,1-3.63-2.66,11.33,11.33,0,0,1-2.21-4.08,20.15,20.15,0,0,1-.83-5.17,15.13,15.13,0,0,1,.86-5.12,12.52,12.52,0,0,1,2.39-4,11,11,0,0,1,3.66-2.65,11.2,11.2,0,0,1,4.62-1,10.09,10.09,0,0,1,5.43,1.35A10.66,10.66,0,0,1,350,87.65a13.26,13.26,0,0,1,1.8,4.55,19,19,0,0,1,.4,4.7H333.87a10.2,10.2,0,0,0,.38,3.06,7.15,7.15,0,0,0,1.38,2.56,6.74,6.74,0,0,0,2.42,1.78,8.28,8.28,0,0,0,3.46.67,6.94,6.94,0,0,0,4.2-1.19,5.69,5.69,0,0,0,2.16-3.61h4A9.75,9.75,0,0,1,348.3,106.45Zm-1-15.75a6.61,6.61,0,0,0-1.48-2.21A7.15,7.15,0,0,0,343.67,87a7,7,0,0,0-2.78-.54,7.22,7.22,0,0,0-2.82.54,6.61,6.61,0,0,0-2.16,1.5,7.42,7.42,0,0,0-1.42,2.2,8.51,8.51,0,0,0-.62,2.68H348a7.79,7.79,0,0,0-.64-2.68Z"/>
    <path class="cls-4" d="M378.13,107.91a5.54,5.54,0,0,1-2.89.63,3.52,3.52,0,0,1-2.49-.88,3.86,3.86,0,0,1-.93-2.87,9.54,9.54,0,0,1-3.86,2.87,13.31,13.31,0,0,1-7.92.5,7.54,7.54,0,0,1-2.59-1.19,5.82,5.82,0,0,1-1.73-2.11,8.37,8.37,0,0,1,.07-6.57,6.19,6.19,0,0,1,1.87-2.16,9,9,0,0,1,2.66-1.26c1-.28,2-.52,3.06-.71s2.16-.39,3.15-.5a16.57,16.57,0,0,0,2.64-.47,4.5,4.5,0,0,0,1.8-.9,2.16,2.16,0,0,0,.66-1.73,4,4,0,0,0-.49-2.14,3.4,3.4,0,0,0-1.32-1.23,4.92,4.92,0,0,0-1.76-.57,13.56,13.56,0,0,0-1.92-.14,8.61,8.61,0,0,0-4.27,1c-1.14.65-1.76,1.87-1.85,3.68h-4a8.92,8.92,0,0,1,1-3.85,7.08,7.08,0,0,1,2.27-2.53,9.49,9.49,0,0,1,3.25-1.4,17.31,17.31,0,0,1,3.92-.43,22.56,22.56,0,0,1,3.29.24,8.31,8.31,0,0,1,3,1,5.67,5.67,0,0,1,2.07,2,6.4,6.4,0,0,1,.81,3.45v12.59a9.78,9.78,0,0,0,.17,2.09q.17.66,1.11.66a3.68,3.68,0,0,0,1.23-.24ZM371.59,95.3a5,5,0,0,1-2,.83c-.82.17-1.68.32-2.58.43s-1.81.23-2.73.38a10.31,10.31,0,0,0-2.47.68A4.59,4.59,0,0,0,360,99a3.85,3.85,0,0,0-.69,2.39,3.14,3.14,0,0,0,1.45,2.8,4.33,4.33,0,0,0,1.49.62,7.87,7.87,0,0,0,1.8.19,9.44,9.44,0,0,0,3.42-.55,6.88,6.88,0,0,0,2.32-1.37,5.28,5.28,0,0,0,1.33-1.81,4.42,4.42,0,0,0,.43-1.82Z"/>
    <path class="cls-4" d="M385.68,83.49v3.89h.14a8.51,8.51,0,0,1,8-4.46,10.64,10.64,0,0,1,4,.66,6.49,6.49,0,0,1,4,4.68,14.73,14.73,0,0,1,.41,3.62V108h-4V91.41a4.84,4.84,0,0,0-1.42-3.61,4.91,4.91,0,0,0-3.65-1.32,8.35,8.35,0,0,0-3.2.57,6.21,6.21,0,0,0-2.25,1.61,6.9,6.9,0,0,0-1.36,2.44,10.21,10.21,0,0,0-.45,3.06V108h-4V83.49Z"/>
    <path class="cls-4" d="M223.83,150.82a12.46,12.46,0,0,1-4.88,1,17.29,17.29,0,0,1-7-1.35,15,15,0,0,1-5.24-3.72,16.22,16.22,0,0,1-3.28-5.58,20.5,20.5,0,0,1-1.13-6.9,21.08,21.08,0,0,1,1.13-7,16.71,16.71,0,0,1,3.28-5.67,14.88,14.88,0,0,1,5.24-3.8,17.14,17.14,0,0,1,7-1.37,16.68,16.68,0,0,1,5,.78,14.29,14.29,0,0,1,4.41,2.3,12.52,12.52,0,0,1,4.82,8.87h-7.12a7.22,7.22,0,0,0-2.56-4.27,7.47,7.47,0,0,0-4.6-1.42,8.67,8.67,0,0,0-4.27,1,8,8,0,0,0-2.85,2.61,11.07,11.07,0,0,0-1.55,3.7,18,18,0,0,0-.5,4.32,16.6,16.6,0,0,0,.5,4.15,10.72,10.72,0,0,0,1.59,3.63,8.05,8.05,0,0,0,2.85,2.59,8.78,8.78,0,0,0,4.27,1,7.26,7.26,0,0,0,8-6.41,6.79,6.79,0,0,0,.05-.9h-7.49v-5.55h14.23v18.31H229l-.75-3.84A11.21,11.21,0,0,1,223.83,150.82Z"/>
    <path class="cls-4" d="M256.89,149.52a11.19,11.19,0,0,1-6.93,2.09,12.71,12.71,0,0,1-5.1-1,9.84,9.84,0,0,1-3.63-2.61,11.16,11.16,0,0,1-2.2-4.08,19.32,19.32,0,0,1-.83-5.17,14.42,14.42,0,0,1,.85-5.12,12.2,12.2,0,0,1,2.4-4A10.78,10.78,0,0,1,245.1,127a11.18,11.18,0,0,1,4.63-1,10.13,10.13,0,0,1,5.43,1.35,10.83,10.83,0,0,1,3.46,3.44,13.67,13.67,0,0,1,1.8,4.55,19.89,19.89,0,0,1,.41,4.68H242.47a9.06,9.06,0,0,0,.38,3.06,6.69,6.69,0,0,0,3.79,4.34,8.23,8.23,0,0,0,3.47.67,7,7,0,0,0,4.19-1.19,5.77,5.77,0,0,0,2.16-3.61h4A9.88,9.88,0,0,1,256.89,149.52Zm-1-15.75a6.78,6.78,0,0,0-3.66-3.68,6.94,6.94,0,0,0-2.77-.54,7.15,7.15,0,0,0-2.82.54,6.51,6.51,0,0,0-2.16,1.5,7.07,7.07,0,0,0-1.43,2.2,8.29,8.29,0,0,0-.61,2.68h14.09a8.62,8.62,0,0,0-.61-2.7Z"/>
    <path class="cls-4" d="M268.83,126.56v3.89h.09a8.49,8.49,0,0,1,8-4.46,10.71,10.71,0,0,1,4,.66,6.49,6.49,0,0,1,4,4.68,15.31,15.31,0,0,1,.41,3.63v16.12h-4v-16.6a4.88,4.88,0,0,0-1.33-3.61,4.94,4.94,0,0,0-3.65-1.32,8.28,8.28,0,0,0-3.2.57,5.93,5.93,0,0,0-2.25,1.61,6.61,6.61,0,0,0-1.36,2.44,9.91,9.91,0,0,0-.45,3.06v13.85h-4V126.56Z"/>
    <path class="cls-4" d="M290.83,133.79a11.32,11.32,0,0,1,2.27-4.08,10.8,10.8,0,0,1,3.73-2.71,13.79,13.79,0,0,1,10.26,0,10.85,10.85,0,0,1,3.73,2.73,11.32,11.32,0,0,1,2.27,4.08,16,16,0,0,1,.76,5.05,15.72,15.72,0,0,1-.76,5,11.16,11.16,0,0,1-2.27,4.06,10.31,10.31,0,0,1-3.73,2.7,13.88,13.88,0,0,1-10.26,0,10.39,10.39,0,0,1-3.75-2.7,11.16,11.16,0,0,1-2.27-4.06,15.72,15.72,0,0,1-.76-5A15.89,15.89,0,0,1,290.83,133.79Zm4.1,9a8.15,8.15,0,0,0,1.64,2.89,7,7,0,0,0,2.44,1.78,7.37,7.37,0,0,0,5.93,0,7,7,0,0,0,2.43-1.78,7.92,7.92,0,0,0,1.64-2.89,13.56,13.56,0,0,0,0-7.93,8.23,8.23,0,0,0-1.64-2.91,7.1,7.1,0,0,0-2.43-1.81,7.54,7.54,0,0,0-5.93,0,7,7,0,0,0-2.44,1.81,8.39,8.39,0,0,0-1.64,2.91A13.56,13.56,0,0,0,294.93,142.79Z"/>
    <path class="cls-4" d="M322.39,126.56v3.6h.1a9.56,9.56,0,0,1,12.05-3.22,5.3,5.3,0,0,1,2.61,3.22,8.65,8.65,0,0,1,3.25-3.08,9.09,9.09,0,0,1,4.42-1.08,13,13,0,0,1,3.35.4,6.89,6.89,0,0,1,2.56,1.26,5.65,5.65,0,0,1,1.66,2.21,8,8,0,0,1,.59,3.24v18h-4V135a10.89,10.89,0,0,0-.19-2.13,4.38,4.38,0,0,0-.71-1.73,3.61,3.61,0,0,0-1.45-1.17,5.77,5.77,0,0,0-2.4-.42,6.41,6.41,0,0,0-4.69,1.7,6.17,6.17,0,0,0-1.71,4.56v15.27h-4V135a9.44,9.44,0,0,0-.22-2.18,4.42,4.42,0,0,0-.73-1.73,3.39,3.39,0,0,0-1.4-1.14,5.41,5.41,0,0,0-2.25-.4,6.06,6.06,0,0,0-3,.71A6.92,6.92,0,0,0,323.1,134a6,6,0,0,0-.36,1.78v15.27h-4V126.56Z"/>
    <path class="cls-4" d="M376.43,149.52a11.15,11.15,0,0,1-6.93,2.09,12.78,12.78,0,0,1-5.1-1,10,10,0,0,1-3.58-2.61,11.33,11.33,0,0,1-2.21-4.08,20.15,20.15,0,0,1-.83-5.17,15.13,15.13,0,0,1,.86-5.12,12.52,12.52,0,0,1,2.39-4,11,11,0,0,1,3.66-2.65,11.2,11.2,0,0,1,4.62-1,10.09,10.09,0,0,1,5.43,1.35,10.66,10.66,0,0,1,3.47,3.44,13.26,13.26,0,0,1,1.8,4.55,19,19,0,0,1,.4,4.7H362a10.2,10.2,0,0,0,.38,3.06,7.15,7.15,0,0,0,1.38,2.56,6.65,6.65,0,0,0,2.42,1.78,8.28,8.28,0,0,0,3.46.67,7,7,0,0,0,4.2-1.19,5.69,5.69,0,0,0,2.16-3.61h4A9.72,9.72,0,0,1,376.43,149.52Zm-1-15.75a6.58,6.58,0,0,0-1.47-2.21,6.85,6.85,0,0,0-4.95-2,7.23,7.23,0,0,0-2.83.54,6.61,6.61,0,0,0-2.16,1.5,7.42,7.42,0,0,0-1.42,2.2,8.51,8.51,0,0,0-.62,2.68h14.09a7.65,7.65,0,0,0-.62-2.7Z"/>
    <path class="cls-4" d="M397.58,136v3.79H383.87V136Z"/>
    <path class="cls-4" d="M407.17,126.56v3.32h.09a6.1,6.1,0,0,1,3.13-3,11.86,11.86,0,0,1,4.7-.92,11.14,11.14,0,0,1,5,1,10.17,10.17,0,0,1,3.51,2.83,12.59,12.59,0,0,1,2.11,4.1,16.8,16.8,0,0,1,.71,4.93,17.19,17.19,0,0,1-.69,4.94,11.28,11.28,0,0,1-2.09,4,9.68,9.68,0,0,1-3.51,2.73,11.37,11.37,0,0,1-4.91,1,12.2,12.2,0,0,1-2-.19,11.54,11.54,0,0,1-2.21-.62,8.72,8.72,0,0,1-2.06-1.16,6.52,6.52,0,0,1-1.64-1.83h-.09v12.62h-4V126.56Zm14.49,8.7a8.76,8.76,0,0,0-1.38-2.91,6.46,6.46,0,0,0-2.37-2,7.07,7.07,0,0,0-9.18,2.15,8.72,8.72,0,0,0-1.3,3,14.18,14.18,0,0,0,0,6.85,8.66,8.66,0,0,0,1.35,3,7.09,7.09,0,0,0,2.4,2.06,7.6,7.6,0,0,0,3.56.79,6.87,6.87,0,0,0,3.48-.81,6.35,6.35,0,0,0,2.26-2.14,8.85,8.85,0,0,0,1.23-3,15.92,15.92,0,0,0,.38-3.51A12.39,12.39,0,0,0,421.66,135.26Z"/>
    <path class="cls-4" d="M435.16,117.21v13h.09a5.44,5.44,0,0,1,1.33-1.92A7.75,7.75,0,0,1,438.5,127a9.71,9.71,0,0,1,2.23-.73,11.75,11.75,0,0,1,6.25.42,6.49,6.49,0,0,1,4,4.68,14.81,14.81,0,0,1,.41,3.63v16.12h-4v-16.6a4.87,4.87,0,0,0-1.32-3.61,5,5,0,0,0-3.66-1.32,8.35,8.35,0,0,0-3.2.57,6.09,6.09,0,0,0-2.25,1.61,7.06,7.06,0,0,0-1.36,2.44,10.21,10.21,0,0,0-.44,3.06v13.85h-4V117.21Z"/>
    <path class="cls-4" d="M474.82,149.52a11.12,11.12,0,0,1-6.92,2.09,12.44,12.44,0,0,1-5.1-1,10.14,10.14,0,0,1-3.63-2.66,11.33,11.33,0,0,1-2.21-4.08,20.15,20.15,0,0,1-.83-5.17,14.88,14.88,0,0,1,.85-5.12,12.55,12.55,0,0,1,2.4-4,11,11,0,0,1,3.65-2.65,11.25,11.25,0,0,1,4.63-1,10.11,10.11,0,0,1,5.43,1.35,10.63,10.63,0,0,1,3.46,3.44,13.69,13.69,0,0,1,1.81,4.55,19.53,19.53,0,0,1,.4,4.7H460.44a9.6,9.6,0,0,0,.38,3.06,6.72,6.72,0,0,0,3.79,4.34,8.29,8.29,0,0,0,3.47.67,7,7,0,0,0,4.2-1.19,5.69,5.69,0,0,0,2.15-3.61h4A9.71,9.71,0,0,1,474.82,149.52Zm-1-15.75a6.73,6.73,0,0,0-1.47-2.21,7.35,7.35,0,0,0-2.18-1.47,7,7,0,0,0-2.78-.54,7.22,7.22,0,0,0-2.82.54,6.61,6.61,0,0,0-2.16,1.5,6.93,6.93,0,0,0-1.42,2.2,8.51,8.51,0,0,0-.62,2.68h14.09a8,8,0,0,0-.57-2.7Z"/>
    <path class="cls-4" d="M486.82,126.56v3.89h0a8.51,8.51,0,0,1,8-4.46,10.68,10.68,0,0,1,4,.66,6.5,6.5,0,0,1,4,4.68,14.81,14.81,0,0,1,.41,3.63v16.12h-4v-16.6a4.87,4.87,0,0,0-1.32-3.61,5,5,0,0,0-3.66-1.32,8.35,8.35,0,0,0-3.2.57,6.09,6.09,0,0,0-2.25,1.61,6.88,6.88,0,0,0-1.35,2.44,10.21,10.21,0,0,0-.45,3.06v13.85h-4V126.56Z"/>
    <path class="cls-4" d="M508.82,133.79a11.65,11.65,0,0,1,2.28-4.08,11,11,0,0,1,3.72-2.71,13.84,13.84,0,0,1,10.28,0,10.91,10.91,0,0,1,3.72,2.73,11.5,11.5,0,0,1,2.28,4.08,17,17,0,0,1,0,10.05,11.41,11.41,0,0,1-2.28,4.06,10.28,10.28,0,0,1-3.72,2.7,14,14,0,0,1-10.28,0,10.44,10.44,0,0,1-3.74-2.7,11.57,11.57,0,0,1-2.28-4.06,16.85,16.85,0,0,1,0-10.07Zm4.1,9a8.46,8.46,0,0,0,1.64,2.89,7.15,7.15,0,0,0,2.44,1.78,7.57,7.57,0,0,0,6,0,6.88,6.88,0,0,0,2.45-1.78,8.12,8.12,0,0,0,1.63-2.89,13.4,13.4,0,0,0,0-7.93,8.37,8.37,0,0,0-1.63-2.91,7,7,0,0,0-2.45-1.81,7.68,7.68,0,0,0-6,0,7.08,7.08,0,0,0-2.48,1.86,8.55,8.55,0,0,0-1.64,2.91,13.73,13.73,0,0,0,0,7.93Z"/>
    <path class="cls-4" d="M540.37,126.56v3.6h.1a9.56,9.56,0,0,1,12-3.22,5.34,5.34,0,0,1,2.61,3.22,8.58,8.58,0,0,1,3.25-3.08,9.17,9.17,0,0,1,4.44-1.08,13,13,0,0,1,3.35.4,7,7,0,0,1,2.56,1.26,5.65,5.65,0,0,1,1.66,2.21,8,8,0,0,1,.59,3.24v18h-4V135a10.89,10.89,0,0,0-.19-2.13,4.1,4.1,0,0,0-.71-1.73,3.61,3.61,0,0,0-1.45-1.17,5.75,5.75,0,0,0-2.39-.42,6.42,6.42,0,0,0-4.7,1.7,6.17,6.17,0,0,0-1.71,4.56v15.27h-4V135a10,10,0,0,0-.21-2.18,4.75,4.75,0,0,0-.74-1.73,3.39,3.39,0,0,0-1.4-1.14,5.41,5.41,0,0,0-2.25-.4,5.93,5.93,0,0,0-3,.71,6.69,6.69,0,0,0-2,1.71,6.5,6.5,0,0,0-1.14,2.06,6,6,0,0,0-.36,1.78v15.27h-4V126.56Z"/>
    <path class="cls-4" d="M594.41,149.52a11.15,11.15,0,0,1-6.93,2.09,12.75,12.75,0,0,1-5.1-1,10.05,10.05,0,0,1-3.63-2.66,11.31,11.31,0,0,1-2.2-4.08,19.32,19.32,0,0,1-.83-5.17,14.88,14.88,0,0,1,.85-5.12,12.37,12.37,0,0,1,2.4-4,10.88,10.88,0,0,1,3.65-2.65,11.17,11.17,0,0,1,4.62-1,10.15,10.15,0,0,1,5.44,1.35,10.73,10.73,0,0,1,3.46,3.44,13.67,13.67,0,0,1,1.8,4.55,20.06,20.06,0,0,1,.41,4.7H580a9.6,9.6,0,0,0,.38,3.06,6.9,6.9,0,0,0,1.37,2.56,6.65,6.65,0,0,0,2.42,1.78,8.37,8.37,0,0,0,3.46.67,7,7,0,0,0,4.2-1.19,5.77,5.77,0,0,0,2.16-3.61h4A9.8,9.8,0,0,1,594.41,149.52Zm-1-15.75a6.78,6.78,0,0,0-3.66-3.68,6.94,6.94,0,0,0-2.77-.54,7.23,7.23,0,0,0-2.83.54,6.57,6.57,0,0,0-2.15,1.5,7.25,7.25,0,0,0-1.43,2.2,8.56,8.56,0,0,0-.61,2.68h14.09a8.35,8.35,0,0,0-.61-2.7Z"/>
    <path class="cls-4" d="M220.65,160.28l12.66,33.88h-7.73L223,186.61H210.35l-2.66,7.55H200.2L213,160.28Zm.42,20.78-4.24-12.43h-.09l-4.41,12.43Z"/>
    <path class="cls-4" d="M239.67,169.63v5.17h.09a11,11,0,0,1,3.61-4.41,9,9,0,0,1,5.41-1.33v4.27a11.36,11.36,0,0,0-4.13.66,6.43,6.43,0,0,0-2.75,1.95,7.89,7.89,0,0,0-1.52,3.1,16.07,16.07,0,0,0-.47,4.2v10.92h-4V169.63Z"/>
    <path class="cls-4" d="M265.62,173.9a6.07,6.07,0,0,0-4.08-1.28,7.55,7.55,0,0,0-3.65.8,6.28,6.28,0,0,0-2.35,2.14,8.55,8.55,0,0,0-1.26,3.06,16,16,0,0,0-.38,3.58,13.77,13.77,0,0,0,.4,3.32,8.67,8.67,0,0,0,1.26,2.87,6.31,6.31,0,0,0,2.23,2,6.73,6.73,0,0,0,3.27.76,6.61,6.61,0,0,0,4.68-1.57,7,7,0,0,0,2.06-4.41h4.13a11.39,11.39,0,0,1-3.39,7,10.65,10.65,0,0,1-7.43,2.47,12.53,12.53,0,0,1-5-.91,9.5,9.5,0,0,1-3.6-2.56,10.64,10.64,0,0,1-2.18-4,16.3,16.3,0,0,1-.74-5,17.6,17.6,0,0,1,.71-5.15,12,12,0,0,1,2.16-4.17,10.17,10.17,0,0,1,3.63-2.8,12,12,0,0,1,5.08-1,14.77,14.77,0,0,1,3.91.5,9.53,9.53,0,0,1,3.23,1.54,8.54,8.54,0,0,1,2.3,2.63,10,10,0,0,1,1.22,3.83h-4.18A6.2,6.2,0,0,0,265.62,173.9Z"/>
    <path class="cls-4" d="M280.47,160.28v12.95h.09a5.31,5.31,0,0,1,1.33-1.92,7.36,7.36,0,0,1,1.94-1.31,9.55,9.55,0,0,1,2.23-.73,11.75,11.75,0,0,1,6.25.42,6.47,6.47,0,0,1,4,4.68,15.31,15.31,0,0,1,.41,3.63v16.13h-4V177.55a4.59,4.59,0,0,0-5-4.93,8.18,8.18,0,0,0-3.21.57,5.93,5.93,0,0,0-2.25,1.61,6.58,6.58,0,0,0-1.35,2.44,9.91,9.91,0,0,0-.45,3.06v13.86h-4V160.28Z"/>
    <path class="cls-4" d="M303.05,165.22v-4.94h4v4.94Zm4,4.41v24.53h-4V169.63Z"/>
    <path class="cls-4" d="M320.07,194.16,311,169.63h4.51l6.88,20.44h.09l6.69-20.44h4.22l-9,24.53Z"/>
    <path class="cls-4" d="M354.41,192.59a11.12,11.12,0,0,1-6.92,2.09,12.78,12.78,0,0,1-5.1-1,10.14,10.14,0,0,1-3.63-2.66,11.33,11.33,0,0,1-2.21-4.08,20.15,20.15,0,0,1-.83-5.17,15.13,15.13,0,0,1,.86-5.12,12.52,12.52,0,0,1,2.39-4,11.08,11.08,0,0,1,3.65-2.65,11.2,11.2,0,0,1,4.63-.95,10.09,10.09,0,0,1,5.43,1.35,10.66,10.66,0,0,1,3.47,3.44,13.18,13.18,0,0,1,1.8,4.55,19,19,0,0,1,.4,4.7H340a10.2,10.2,0,0,0,.38,3.06,7.15,7.15,0,0,0,1.38,2.56,6.74,6.74,0,0,0,2.42,1.78,8.28,8.28,0,0,0,3.46.67,7,7,0,0,0,4.19-1.16,5.69,5.69,0,0,0,2.16-3.61h4A9.77,9.77,0,0,1,354.41,192.59Zm-1-15.75a6.58,6.58,0,0,0-1.47-2.21,7,7,0,0,0-2.18-1.47,7,7,0,0,0-2.78-.54,7.22,7.22,0,0,0-2.82.54,6.61,6.61,0,0,0-2.16,1.5,7.42,7.42,0,0,0-1.42,2.2,8.51,8.51,0,0,0-.62,2.68h14.09a7.86,7.86,0,0,0-.61-2.7Z"/>
  </g>
</svg>
